<svg xmlns="http://www.w3.org/2000/svg" width="1200" height="800" viewBox="0 0 1200 800">
<defs><linearGradient id="bg" x1="0" y1="0" x2="1" y2="1"><stop stop-color="#ebe3d6"/><stop offset="1" stop-color="#cfc3b1"/></linearGradient><filter id="sh"><feDropShadow dx="0" dy="22" stdDeviation="18" flood-opacity=".22"/></filter></defs>
<rect width="1200" height="800" fill="url(#bg)"/><path d="M0 650h1200" stroke="#b9ad9b"/><g opacity=".12" stroke="#6c6459"><path d="M0 80h1200"/><path d="M0 160h1200"/><path d="M0 240h1200"/><path d="M0 320h1200"/><path d="M0 400h1200"/><path d="M0 480h1200"/><path d="M0 560h1200"/><path d="M0 640h1200"/></g>
<g filter="url(#sh)"><rect x="285" y="205" width="455" height="350" rx="5" fill="#cf9f69" stroke="#80532e" stroke-width="16"/><circle cx="315" cy="235" r="9" fill="#2d3131"/><circle cx="315" cy="515" r="9" fill="#2d3131"/><circle cx="710" cy="235" r="9" fill="#2d3131"/><circle cx="710" cy="515" r="9" fill="#2d3131"/></g>
<rect x="70" y="65" width="76" height="76" rx="10" fill="#111815"/><text x="108" y="115" text-anchor="middle" fill="white" font-family="Arial" font-size="28" font-weight="800">DYN</text>
<text x="70" y="705" fill="#28251f" font-family="Arial" font-size="42" font-weight="800">Bolting Boxes</text><text x="72" y="741" fill="#71695f" font-family="Arial" font-size="17" letter-spacing="3">INDUSTRIAL PRODUCT VIEW</text>
</svg>